<?xml version="1.0" encoding="UTF-8" standalone="no"?>
<!-- Created with Inkscape (http://www.inkscape.org/) -->

<svg
   xmlns:dc="http://purl.org/dc/elements/1.1/"
   xmlns:cc="http://creativecommons.org/ns#"
   xmlns:rdf="http://www.w3.org/1999/02/22-rdf-syntax-ns#"
   xmlns:svg="http://www.w3.org/2000/svg"
   xmlns="http://www.w3.org/2000/svg"
   xmlns:xlink="http://www.w3.org/1999/xlink"
   xmlns:sodipodi="http://sodipodi.sourceforge.net/DTD/sodipodi-0.dtd"
   xmlns:inkscape="http://www.inkscape.org/namespaces/inkscape"
   width="5980.2324"
   height="3021.3594"
   viewBox="0 0 1582.2698 799.40134"
   version="1.1"
   id="svg35"
   inkscape:version="0.92.3 (2405546, 2018-03-11)"
   sodipodi:docname="drawingERV.svg">
  <defs
     id="defs29">
    <linearGradient
       id="linearGradient2643"
       inkscape:collect="always">
      <stop
         id="stop2639"
         offset="0"
         style="stop-color:#d900ed;stop-opacity:0.98431373" />
      <stop
         id="stop2641"
         offset="1"
         style="stop-color:#000080;stop-opacity:1" />
    </linearGradient>
    <linearGradient
       inkscape:collect="always"
       id="linearGradient2631">
      <stop
         style="stop-color:#ff00ff;stop-opacity:1"
         offset="0"
         id="stop2627" />
      <stop
         style="stop-color:#000080;stop-opacity:1"
         offset="1"
         id="stop2629" />
    </linearGradient>
    <linearGradient
       inkscape:collect="always"
       id="linearGradient1044">
      <stop
         style="stop-color:#1a1a1a;stop-opacity:1"
         offset="0"
         id="stop1040" />
      <stop
         style="stop-color:#d45500;stop-opacity:1"
         offset="1"
         id="stop1042" />
    </linearGradient>
    <linearGradient
       inkscape:collect="always"
       xlink:href="#linearGradient1044"
       id="linearGradient1046"
       x1="-3877.4661"
       y1="608.1214"
       x2="-2508.2329"
       y2="-412.56732"
       gradientUnits="userSpaceOnUse"
       gradientTransform="matrix(0.48752124,0,0,0.50391643,333.9522,-76.458892)" />
    <linearGradient
       inkscape:collect="always"
       xlink:href="#linearGradient2631"
       id="linearGradient2633"
       x1="3072.8906"
       y1="3012.8594"
       x2="4866.0996"
       y2="598.08203"
       gradientUnits="userSpaceOnUse" />
    <linearGradient
       inkscape:collect="always"
       xlink:href="#linearGradient2643"
       id="linearGradient2650"
       gradientUnits="userSpaceOnUse"
       x1="-1103.1328"
       y1="567.82422"
       x2="3886.2148"
       y2="3012.8594" />
  </defs>
  <sodipodi:namedview
     id="base"
     pagecolor="#ffffff"
     bordercolor="#666666"
     borderopacity="1.0"
     inkscape:pageopacity="0.0"
     inkscape:pageshadow="2"
     inkscape:zoom="0.12589539"
     inkscape:cx="3117.8502"
     inkscape:cy="1396.7327"
     inkscape:document-units="px"
     inkscape:current-layer="layer1"
     showgrid="false"
     showborder="false"
     inkscape:object-nodes="true"
     inkscape:window-width="1920"
     inkscape:window-height="1025"
     inkscape:window-x="0"
     inkscape:window-y="27"
     inkscape:window-maximized="1"
     fit-margin-top="5.5"
     fit-margin-left="5.5"
     fit-margin-right="5.5"
     fit-margin-bottom="5.5"
     units="px" />
  <metadata
     id="metadata32">
    <rdf:RDF>
      <cc:Work
         rdf:about="">
        <dc:format>image/svg+xml</dc:format>
        <dc:type
           rdf:resource="http://purl.org/dc/dcmitype/StillImage" />
        <dc:title></dc:title>
      </cc:Work>
    </rdf:RDF>
  </metadata>
  <g
     inkscape:label="Layer 1"
     inkscape:groupmode="layer"
     id="layer1"
     transform="translate(1885.234,310.7503)">
    <flowRoot
       xml:space="preserve"
       id="flowRoot41"
       style="font-style:normal;font-variant:normal;font-weight:normal;font-stretch:normal;font-size:85.33333588px;line-height:1.25;font-family:sans-serif;-inkscape-font-specification:'sans-serif, Normal';font-variant-ligatures:normal;font-variant-caps:normal;font-variant-numeric:normal;text-align:start;letter-spacing:0px;word-spacing:0px;writing-mode:lr-tb;text-anchor:start;fill:#000000;fill-opacity:1;stroke:none"
       transform="scale(0.26458333)"><flowRegion
         id="flowRegion43"><rect
           id="rect45"
           width="942.85712"
           height="485.71429"
           x="-2171.4285"
           y="-431.76602" /></flowRegion><flowPara
         id="flowPara47"></flowPara></flowRoot>    <flowRoot
       xml:space="preserve"
       id="flowRoot49"
       style="font-style:normal;font-variant:normal;font-weight:normal;font-stretch:normal;font-size:85.33333588px;line-height:1.25;font-family:sans-serif;-inkscape-font-specification:'sans-serif, Normal';font-variant-ligatures:normal;font-variant-caps:normal;font-variant-numeric:normal;text-align:start;letter-spacing:0px;word-spacing:0px;writing-mode:lr-tb;text-anchor:start;fill:#000000;fill-opacity:1;stroke:none"
       transform="scale(0.26458333)"><flowRegion
         id="flowRegion51"><rect
           id="rect53"
           width="188.57143"
           height="308.57144"
           x="-1845.7142"
           y="-191.76602" /></flowRegion><flowPara
         id="flowPara55"></flowPara></flowRoot>    <flowRoot
       xml:space="preserve"
       id="flowRoot60"
       style="font-style:normal;font-variant:normal;font-weight:normal;font-stretch:normal;font-size:85.33333588px;line-height:1.25;font-family:sans-serif;-inkscape-font-specification:'sans-serif, Normal';font-variant-ligatures:normal;font-variant-caps:normal;font-variant-numeric:normal;text-align:start;letter-spacing:0px;word-spacing:0px;writing-mode:lr-tb;text-anchor:start;fill:#000000;fill-opacity:1;stroke:none"
       transform="scale(0.26458333)"><flowRegion
         id="flowRegion62"><rect
           id="rect64"
           width="279.08487"
           height="125.71427"
           x="-1782.8572"
           y="-317.48032" /></flowRegion><flowPara
         id="flowPara66"></flowPara></flowRoot>    <flowRoot
       xml:space="preserve"
       id="flowRoot920"
       style="font-style:normal;font-variant:normal;font-weight:normal;font-stretch:normal;font-size:85.33333588px;line-height:1.25;font-family:sans-serif;-inkscape-font-specification:'sans-serif, Normal';font-variant-ligatures:normal;font-variant-caps:normal;font-variant-numeric:normal;text-align:start;letter-spacing:0px;word-spacing:0px;writing-mode:lr-tb;text-anchor:start;fill:#000000;fill-opacity:1;stroke:none"
       transform="scale(0.26458333)"><flowRegion
         id="flowRegion922"><rect
           id="rect924"
           width="516.72919"
           height="320.14743"
           x="-3083.5254"
           y="-803.98157" /></flowRegion><flowPara
         id="flowPara926"></flowPara></flowRoot>    <path
       style="font-style:normal;font-variant:normal;font-weight:bold;font-stretch:normal;font-size:50.79999924px;line-height:1.25;font-family:sans-serif;-inkscape-font-specification:'sans-serif, Bold';font-variant-ligatures:normal;font-variant-caps:normal;font-variant-numeric:normal;font-feature-settings:normal;text-align:start;letter-spacing:0px;word-spacing:0px;writing-mode:lr-tb;text-anchor:start;opacity:0.878;fill:url(#linearGradient2633);fill-opacity:1;stroke:none;stroke-width:18.78420258"
       d="M -1103.1328,567.82422 V 3012.8594 H 514.89062 V 2536.2988 H -516.00781 v -560.082 H 421.86523 V 1499.6562 H -516.00781 V 1044.3848 H 481.3418 V 567.82422 Z m 1623.36327,0 V 1042.0059 A 680.58464,2017.2383 60.287594 0 1 1204.8984,567.82422 Z m 937.12113,0 A 680.58464,2017.2383 60.287594 0 0 748.95508,1044.5664 l 500.33792,-19.8359 h 306.7715 c 152.7556,0 261.9565,24.0204 327.6035,72.0586 66.9093,48.0382 100.3652,127.7403 100.3652,239.1015 0,112.4531 -33.4559,193.2431 -100.3652,242.3731 -65.647,49.1299 -174.8479,73.6953 -327.6035,73.6953 H 1249.293 l -724.94925,37.1875 -4.11328,-357.2305 V 3012.8594 H 1249.293 v -925.2832 h 206.4062 c 118.6696,0 213.3556,22.3837 284.0528,67.1465 71.9591,44.7628 142.655,128.2834 212.0898,250.5625 l 344.6445,607.5742 h 776.4043 l -395.7773,-694.3692 c -80.7962,-140.8392 -160.9623,-245.6517 -240.4961,-314.4336 -78.2719,-69.8737 -167.271,-114.637 -267.0039,-134.289 154.9101,-41.8652 276.3369,-103.5626 364.3281,-185.0664 l 538.9492,1328.1582 h 813.3242 L 4866.0996,598.08203 H 4180.3574 L 3480.4395,2380.459 2778.748,598.08203 h -685.7421 l 2.4648,6.07031 c -131.585,-24.21241 -285.4975,-36.32812 -461.7656,-36.32812 z"
       transform="matrix(0.26458333,0,0,0.26458333,-1591.9082,-309.95656)"
       id="path980"
       inkscape:connector-curvature="0" />
    <path
       id="path2635"
       transform="matrix(0.26458333,0,0,0.26458333,-1591.9082,-309.95656)"
       d="M -1103.1328,567.82422 V 3012.8594 H 514.89062 V 2536.2988 H -516.00781 v -560.082 H 421.86523 V 1499.6562 H -516.00781 V 1044.3848 H 481.3418 V 567.82422 Z m 1623.36327,0 V 1042.0059 A 680.58464,2017.2383 60.287594 0 1 1204.8984,567.82422 Z m 937.12113,0 A 680.58464,2017.2383 60.287594 0 0 748.95508,1044.5664 l 500.33792,-19.8359 h 306.7715 c 152.7556,0 261.9565,24.0204 327.6035,72.0586 66.9093,48.0382 100.3652,127.7403 100.3652,239.1015 0,112.4531 -33.4559,193.2431 -100.3652,242.3731 -65.647,49.1299 -174.8479,73.6953 -327.6035,73.6953 H 1249.293 l -724.94925,37.1875 -4.11328,-357.2305 V 3012.8594 H 1249.293 v -925.2832 h 206.4062 c 118.6696,0 213.3556,22.3837 284.0528,67.1465 71.9591,44.7628 142.655,128.2834 212.0898,250.5625 l 344.6445,607.5742 h 776.4043 l -395.7773,-694.3692 c -80.7962,-140.8392 -160.9623,-245.6517 -240.4961,-314.4336 -78.2719,-69.8737 -167.271,-114.637 -267.0039,-134.289 154.9101,-41.8652 276.3369,-103.5626 364.3281,-185.0664 l 538.9492,1328.1582 h 813.3242 L 4866.0996,598.08203 H 4180.3574 L 3480.4395,2380.459 2778.748,598.08203 h -685.7421 l 2.4648,6.07031 c -131.585,-24.21241 -285.4975,-36.32812 -461.7656,-36.32812 z"
       style="font-style:normal;font-variant:normal;font-weight:bold;font-stretch:normal;font-size:50.79999924px;line-height:1.25;font-family:sans-serif;-inkscape-font-specification:'sans-serif, Bold';font-variant-ligatures:normal;font-variant-caps:normal;font-variant-numeric:normal;font-feature-settings:normal;text-align:start;letter-spacing:0px;word-spacing:0px;writing-mode:lr-tb;text-anchor:start;opacity:0.878;fill:url(#linearGradient2650);fill-opacity:1;stroke:none;stroke-width:18.78420258"
       inkscape:connector-curvature="0" />
    <path
       transform="translate(-1.773014e-6,5.6093991e-6)"
       style="opacity:1;fill:url(#linearGradient1046);fill-opacity:1;stroke-width:1.25691748;stroke-miterlimit:4;stroke-dasharray:none"
       d="m -775.42612,-309.29485 a 180.07137,533.72762 60.287594 0 0 -430.27838,149.21831 180.07137,533.72762 60.287594 0 0 -377.7596,421.16881 180.07137,533.72762 60.287594 0 0 179.805,37.72287 180.07137,533.72762 60.287594 0 1 -108.165,-43.72656 180.07137,533.72762 60.287594 0 1 377.7595,-421.16979 180.07137,533.72762 60.287594 0 1 371.05408,-142.97645 180.07137,533.72762 60.287594 0 0 -12.4156,-0.23719 z"
       id="path999"
       inkscape:connector-curvature="0" />
  </g>
</svg>
