<?xml version="1.0" encoding="UTF-8" standalone="no"?>
<!-- Created with Inkscape (http://www.inkscape.org/) -->

<svg
   xmlns:dc="http://purl.org/dc/elements/1.1/"
   xmlns:cc="http://creativecommons.org/ns#"
   xmlns:rdf="http://www.w3.org/1999/02/22-rdf-syntax-ns#"
   xmlns:svg="http://www.w3.org/2000/svg"
   xmlns="http://www.w3.org/2000/svg"
   xmlns:xlink="http://www.w3.org/1999/xlink"
   xmlns:sodipodi="http://sodipodi.sourceforge.net/DTD/sodipodi-0.dtd"
   xmlns:inkscape="http://www.inkscape.org/namespaces/inkscape"
   width="286.58636"
   height="172.03862"
   viewBox="0 0 391.07002 234.76046"
   version="1.1"
   id="svg35"
   inkscape:version="0.92.3 (2405546, 2018-03-11)"
   sodipodi:docname="drawingERV3.svg">
  <defs
     id="defs29">
    <linearGradient
       id="linearGradient2643"
       inkscape:collect="always">
      <stop
         id="stop2639"
         offset="0"
         style="stop-color:#d900ed;stop-opacity:0.98431373" />
      <stop
         id="stop2641"
         offset="1"
         style="stop-color:#000080;stop-opacity:1" />
    </linearGradient>
    <linearGradient
       inkscape:collect="always"
       id="linearGradient2631">
      <stop
         style="stop-color:#ff00ff;stop-opacity:1"
         offset="0"
         id="stop2627" />
      <stop
         style="stop-color:#000080;stop-opacity:1"
         offset="1"
         id="stop2629" />
    </linearGradient>
    <linearGradient
       inkscape:collect="always"
       id="linearGradient1044">
      <stop
         style="stop-color:#1a1a1a;stop-opacity:1"
         offset="0"
         id="stop1040" />
      <stop
         style="stop-color:#d45500;stop-opacity:1"
         offset="1"
         id="stop1042" />
    </linearGradient>
    <linearGradient
       inkscape:collect="always"
       xlink:href="#linearGradient1044"
       id="linearGradient1046"
       x1="-3877.4661"
       y1="608.1214"
       x2="-2508.2329"
       y2="-412.56732"
       gradientUnits="userSpaceOnUse"
       gradientTransform="matrix(0.11608318,0,0,0.13902945,395.58223,609.51668)" />
    <linearGradient
       inkscape:collect="always"
       xlink:href="#linearGradient2631"
       id="linearGradient2633"
       x1="3072.8906"
       y1="3012.8594"
       x2="4866.0996"
       y2="598.08203"
       gradientUnits="userSpaceOnUse"
       gradientTransform="matrix(0.06299966,0,0,0.07299797,-62.982412,545.09518)" />
    <linearGradient
       inkscape:collect="always"
       xlink:href="#linearGradient2643"
       id="linearGradient2650"
       gradientUnits="userSpaceOnUse"
       x1="-1103.1328"
       y1="567.82422"
       x2="3886.2148"
       y2="3012.8594"
       gradientTransform="matrix(0.06299966,0,0,0.07299797,-62.982412,545.09518)" />
  </defs>
  <sodipodi:namedview
     id="base"
     pagecolor="#ffffff"
     bordercolor="#666666"
     borderopacity="1.0"
     inkscape:pageopacity="0.0"
     inkscape:pageshadow="2"
     inkscape:zoom="1.4243437"
     inkscape:cx="259.37042"
     inkscape:cy="-86.975083"
     inkscape:document-units="px"
     inkscape:current-layer="layer1"
     showgrid="false"
     showborder="false"
     inkscape:object-nodes="true"
     inkscape:window-width="1920"
     inkscape:window-height="1025"
     inkscape:window-x="0"
     inkscape:window-y="27"
     inkscape:window-maximized="1"
     fit-margin-top="5.5"
     fit-margin-left="5.5"
     fit-margin-right="5.5"
     fit-margin-bottom="5.5"
     units="px"
     scale-x="1.36458" />
  <metadata
     id="metadata32">
    <rdf:RDF>
      <cc:Work
         rdf:about="">
        <dc:format>image/svg+xml</dc:format>
        <dc:type
           rdf:resource="http://purl.org/dc/dcmitype/StillImage" />
        <dc:title></dc:title>
      </cc:Work>
    </rdf:RDF>
  </metadata>
  <g
     inkscape:label="Layer 1"
     inkscape:groupmode="layer"
     id="layer1"
     transform="translate(139.9846,-537.77252)">
    <flowRoot
       xml:space="preserve"
       id="flowRoot41"
       style="font-style:normal;font-variant:normal;font-weight:normal;font-stretch:normal;font-size:85.33333588px;line-height:1.25;font-family:sans-serif;-inkscape-font-specification:'sans-serif, Normal';font-variant-ligatures:normal;font-variant-caps:normal;font-variant-numeric:normal;text-align:start;letter-spacing:0px;word-spacing:0px;writing-mode:lr-tb;text-anchor:start;fill:#000000;fill-opacity:1;stroke:none"
       transform="scale(0.26458333)"><flowRegion
         id="flowRegion43"><rect
           id="rect45"
           width="942.85712"
           height="485.71429"
           x="-2171.4285"
           y="-431.76602" /></flowRegion><flowPara
         id="flowPara47"></flowPara></flowRoot>    <flowRoot
       xml:space="preserve"
       id="flowRoot49"
       style="font-style:normal;font-variant:normal;font-weight:normal;font-stretch:normal;font-size:85.33333588px;line-height:1.25;font-family:sans-serif;-inkscape-font-specification:'sans-serif, Normal';font-variant-ligatures:normal;font-variant-caps:normal;font-variant-numeric:normal;text-align:start;letter-spacing:0px;word-spacing:0px;writing-mode:lr-tb;text-anchor:start;fill:#000000;fill-opacity:1;stroke:none"
       transform="scale(0.26458333)"><flowRegion
         id="flowRegion51"><rect
           id="rect53"
           width="188.57143"
           height="308.57144"
           x="-1845.7142"
           y="-191.76602" /></flowRegion><flowPara
         id="flowPara55"></flowPara></flowRoot>    <flowRoot
       xml:space="preserve"
       id="flowRoot60"
       style="font-style:normal;font-variant:normal;font-weight:normal;font-stretch:normal;font-size:85.33333588px;line-height:1.25;font-family:sans-serif;-inkscape-font-specification:'sans-serif, Normal';font-variant-ligatures:normal;font-variant-caps:normal;font-variant-numeric:normal;text-align:start;letter-spacing:0px;word-spacing:0px;writing-mode:lr-tb;text-anchor:start;fill:#000000;fill-opacity:1;stroke:none"
       transform="scale(0.26458333)"><flowRegion
         id="flowRegion62"><rect
           id="rect64"
           width="279.08487"
           height="125.71427"
           x="-1782.8572"
           y="-317.48032" /></flowRegion><flowPara
         id="flowPara66"></flowPara></flowRoot>    <flowRoot
       xml:space="preserve"
       id="flowRoot920"
       style="font-style:normal;font-variant:normal;font-weight:normal;font-stretch:normal;font-size:85.33333588px;line-height:1.25;font-family:sans-serif;-inkscape-font-specification:'sans-serif, Normal';font-variant-ligatures:normal;font-variant-caps:normal;font-variant-numeric:normal;text-align:start;letter-spacing:0px;word-spacing:0px;writing-mode:lr-tb;text-anchor:start;fill:#000000;fill-opacity:1;stroke:none"
       transform="scale(0.26458333)"><flowRegion
         id="flowRegion922"><rect
           id="rect924"
           width="516.72919"
           height="320.14743"
           x="-3083.5254"
           y="-803.98157" /></flowRegion><flowPara
         id="flowPara926"></flowPara></flowRoot>    <path
       style="font-style:normal;font-variant:normal;font-weight:bold;font-stretch:normal;font-size:50.79999924px;line-height:1.25;font-family:sans-serif;-inkscape-font-specification:'sans-serif, Bold';font-variant-ligatures:normal;font-variant-caps:normal;font-variant-numeric:normal;font-feature-settings:normal;text-align:start;letter-spacing:0px;word-spacing:0px;writing-mode:lr-tb;text-anchor:start;opacity:0.878;fill:url(#linearGradient2633);fill-opacity:1;stroke:none;stroke-width:1.27384698"
       d="m -132.47941,586.54519 v 178.4826 h 101.934932 v -34.78795 h -64.946255 v -40.88487 h 59.085686 v -34.78794 h -59.085686 v -33.23389 h 62.832691 v -34.78795 z m 102.271342,0 v 34.6143 a 47.656322,132.48534 55.438772 0 1 43.13385,-34.6143 z m 59.038316,0 a 47.656322,132.48534 55.438772 0 0 -44.628742,34.80121 l 31.52112,-1.44798 h 19.326502 c 9.623553,0 16.503174,1.75344 20.63891,5.26013 4.215266,3.50669 6.322977,9.32479 6.322977,17.45392 0,8.20885 -2.107711,14.10636 -6.322977,17.69275 -4.135736,3.58638 -11.015357,5.37961 -20.63891,5.37961 H 15.722626 l -45.671559,2.71461 -0.259135,-26.07711 V 765.02779 H 15.722626 V 697.484 H 28.72615 c 7.476145,0 13.44133,1.63395 17.895228,4.90155 4.533402,3.26759 8.987218,9.36444 13.361586,18.29056 l 21.71249,44.35168 h 48.913206 l -24.93383,-50.68753 c -5.09014,-10.28098 -10.140572,-17.9321 -15.151177,-22.95302 -4.931105,-5.10063 -10.538015,-8.36828 -16.821155,-9.80284 9.759286,-3.05607 17.409133,-7.55985 22.952546,-13.50946 l 33.953616,96.95285 h 51.23916 L 243.58024,588.75395 H 200.3787 l -44.09459,130.1099 -44.20633,-130.1099 H 68.876259 l 0.155278,0.44312 c -8.289809,-1.76746 -17.986245,-2.65188 -29.091079,-2.65188 z"
       id="path980"
       inkscape:connector-curvature="0" />
    <path
       id="path2635"
       d="m -132.47941,586.54519 v 178.4826 h 101.934932 v -34.78795 h -64.946255 v -40.88487 h 59.085686 v -34.78794 h -59.085686 v -33.23389 h 62.832691 v -34.78795 z m 102.271342,0 v 34.6143 a 47.656322,132.48534 55.438772 0 1 43.13385,-34.6143 z m 59.038316,0 a 47.656322,132.48534 55.438772 0 0 -44.628742,34.80121 l 31.52112,-1.44798 h 19.326502 c 9.623553,0 16.503174,1.75344 20.63891,5.26013 4.215266,3.50669 6.322977,9.32479 6.322977,17.45392 0,8.20885 -2.107711,14.10636 -6.322977,17.69275 -4.135736,3.58638 -11.015357,5.37961 -20.63891,5.37961 H 15.722626 l -45.671559,2.71461 -0.259135,-26.07711 V 765.02779 H 15.722626 V 697.484 H 28.72615 c 7.476145,0 13.44133,1.63395 17.895228,4.90155 4.533402,3.26759 8.987218,9.36444 13.361586,18.29056 l 21.71249,44.35168 h 48.913206 l -24.93383,-50.68753 c -5.09014,-10.28098 -10.140572,-17.9321 -15.151177,-22.95302 -4.931105,-5.10063 -10.538015,-8.36828 -16.821155,-9.80284 9.759286,-3.05607 17.409133,-7.55985 22.952546,-13.50946 l 33.953616,96.95285 h 51.23916 L 243.58024,588.75395 H 200.3787 l -44.09459,130.1099 -44.20633,-130.1099 H 68.876259 l 0.155278,0.44312 c -8.289809,-1.76746 -17.986245,-2.65188 -29.091079,-2.65188 z"
       style="font-style:normal;font-variant:normal;font-weight:bold;font-stretch:normal;font-size:50.79999924px;line-height:1.25;font-family:sans-serif;-inkscape-font-specification:'sans-serif, Bold';font-variant-ligatures:normal;font-variant-caps:normal;font-variant-numeric:normal;font-feature-settings:normal;text-align:start;letter-spacing:0px;word-spacing:0px;writing-mode:lr-tb;text-anchor:start;opacity:0.878;fill:url(#linearGradient2650);fill-opacity:1;stroke:none;stroke-width:1.27384698"
       inkscape:connector-curvature="0" />
    <path
       style="opacity:1;fill:url(#linearGradient1046);fill-opacity:1;stroke-width:0.32215789;stroke-miterlimit:4;stroke-dasharray:none"
       d="M 131.4293,545.27774 A 47.656326,132.48534 55.438772 0 0 28.976151,586.44675 47.656326,132.48534 55.438772 0 0 -60.9718,702.6463 a 47.656326,132.48534 55.438772 0 0 42.813185,10.40766 47.656326,132.48534 55.438772 0 1 -25.755057,-12.06407 47.656326,132.48534 55.438772 0 1 89.947928,-116.19982 47.656326,132.48534 55.438772 0 1 88.351304,-39.44689 47.656326,132.48534 55.438772 0 0 -2.95626,-0.0654 z"
       id="path999"
       inkscape:connector-curvature="0" />
  </g>
</svg>
