<?xml version="1.0" encoding="iso-8859-1"?>
<!-- Generator: Adobe Illustrator 19.0.0, SVG Export Plug-In . SVG Version: 6.00 Build 0)  -->
<svg version="1.1" id="Capa_1" xmlns="http://www.w3.org/2000/svg" xmlns:xlink="http://www.w3.org/1999/xlink" x="0px" y="0px"
	 viewBox="0 0 209.371 209.371" style="enable-background:new 0 0 209.371 209.371;" xml:space="preserve">
<g>
	<polygon points="157.839,57.636 125.81,25.607 78.919,72.498 32.028,25.607 0,57.636 46.89,104.527 0,151.417 32.028,183.447 
		78.919,136.556 125.81,183.447 157.839,151.417 110.948,104.527 	"/>
	<path d="M189.01,164.764l8.421-7.322c6.229-5.558,11.819-11.278,11.819-21.167c0-15.067-13.131-21.886-25.331-21.886
		c-13.55,0-24.162,8.707-26.41,21.635c-0.116,0.671-0.138,2.144-0.138,3.244v3.006l19.728-0.038l0.295-2.664
		c0.174-1.563,1.1-6.664,5.741-6.664c2.929,0,4.676,1.65,4.676,4.414c0,2.446-1.344,4.568-4.225,7.284l-25.215,22.702v16.457h51v-19
		H189.01z"/>
</g>
<g>
</g>
<g>
</g>
<g>
</g>
<g>
</g>
<g>
</g>
<g>
</g>
<g>
</g>
<g>
</g>
<g>
</g>
<g>
</g>
<g>
</g>
<g>
</g>
<g>
</g>
<g>
</g>
<g>
</g>
</svg>
